<!DOCTYPE svg PUBLIC "-//W3C//DTD SVG 1.1//EN" "http://www.w3.org/Graphics/SVG/1.1/DTD/svg11.dtd">
<!-- Uploaded to: SVG Repo, www.svgrepo.com, Transformed by: SVG Repo Mixer Tools -->
<svg width="800px" height="800px" viewBox="0 0 16 16" xmlns="http://www.w3.org/2000/svg" fill="#f97316" class="bi bi-basket">
<g id="SVGRepo_bgCarrier" stroke-width="0"/>
<g id="SVGRepo_tracerCarrier" stroke-linecap="round" stroke-linejoin="round"/>
<g id="SVGRepo_iconCarrier"> <path d="M5.757 1.071a.5.5 0 0 1 .172.686L3.383 6h9.234L10.07 1.757a.5.5 0 1 1 .858-.514L13.783 6H15a1 1 0 0 1 1 1v1a1 1 0 0 1-1 1v4.5a2.5 2.5 0 0 1-2.5 2.5h-9A2.5 2.5 0 0 1 1 13.5V9a1 1 0 0 1-1-1V7a1 1 0 0 1 1-1h1.217L5.07 1.243a.5.5 0 0 1 .686-.172zM2 9v4.5A1.5 1.5 0 0 0 3.5 15h9a1.5 1.5 0 0 0 1.5-1.5V9H2zM1 7v1h14V7H1zm3 3a.5.5 0 0 1 .5.5v3a.5.5 0 0 1-1 0v-3A.5.5 0 0 1 4 10zm2 0a.5.5 0 0 1 .5.5v3a.5.5 0 0 1-1 0v-3A.5.5 0 0 1 6 10zm2 0a.5.5 0 0 1 .5.5v3a.5.5 0 0 1-1 0v-3A.5.5 0 0 1 8 10zm2 0a.5.5 0 0 1 .5.5v3a.5.5 0 0 1-1 0v-3a.5.5 0 0 1 .5-.5zm2 0a.5.5 0 0 1 .5.5v3a.5.5 0 0 1-1 0v-3a.5.5 0 0 1 .5-.5z"/> </g>
</svg>